<svg width="1462" height="615" viewBox="0 0 1462 615" fill="none" xmlns="http://www.w3.org/2000/svg">
<path d="M0 598.5V16C0 7.16344 7.16344 0 16 0H91.5995C98.4224 0 104.495 4.32671 106.723 10.7757L118.277 44.2243C120.505 50.6733 126.578 55 133.401 55H455C463.837 55 471 47.8366 471 39V16C471 7.16344 478.163 0 487 0H1446C1454.84 0 1462 7.16345 1462 16V525.782C1462 531.217 1459.24 536.28 1454.67 539.226L1341.96 611.945C1339.38 613.613 1336.36 614.5 1333.29 614.5H1107C1098.16 614.5 1091 607.337 1091 598.5V570C1091 561.163 1083.84 554 1075 554H736C727.163 554 720 561.163 720 570V598.5C720 607.337 712.837 614.5 704 614.5H16C7.16344 614.5 0 607.337 0 598.5Z" fill="#C23B02"/>
</svg>
