<svg width="345" height="79" viewBox="0 0 345 79" fill="none" xmlns="http://www.w3.org/2000/svg">
<mask id="mask0_208_43" style="mask-type:luminance" maskUnits="userSpaceOnUse" x="143" y="0" width="6" height="79">
<path d="M143.641 0.658203H148.776V79H143.641V0.658203Z" fill="white"/>
</mask>
<g mask="url(#mask0_208_43)">
<path d="M148.698 0.658203H143.681V79H148.698V0.658203Z" fill="#333333"/>
</g>
<mask id="mask1_208_43" style="mask-type:luminance" maskUnits="userSpaceOnUse" x="105" y="0" width="9" height="79">
<path d="M105.705 0.658203H113.107V79H105.705V0.658203Z" fill="white"/>
</mask>
<g mask="url(#mask1_208_43)">
<path d="M113.101 0.658203H105.8V79H113.101V0.658203Z" fill="#333333"/>
</g>
<mask id="mask2_208_43" style="mask-type:luminance" maskUnits="userSpaceOnUse" x="127" y="0" width="9" height="79">
<path d="M127.636 0.658203H135.936V79H127.636V0.658203Z" fill="white"/>
</mask>
<g mask="url(#mask2_208_43)">
<path d="M135.919 0.658203H127.703V79H135.919V0.658203Z" fill="#333333"/>
</g>
<mask id="mask3_208_43" style="mask-type:luminance" maskUnits="userSpaceOnUse" x="152" y="0" width="7" height="79">
<path d="M152.732 0.658203H158.753V79H152.732V0.658203Z" fill="white"/>
</mask>
<g mask="url(#mask3_208_43)">
<path d="M158.737 0.658203H152.805V79H158.737V0.658203Z" fill="#333333"/>
</g>
<mask id="mask4_208_43" style="mask-type:luminance" maskUnits="userSpaceOnUse" x="172" y="0" width="10" height="79">
<path d="M172.39 0.658203H181.184V79H172.39V0.658203Z" fill="white"/>
</mask>
<g mask="url(#mask4_208_43)">
<path d="M181.1 0.658203H172.43V79H181.1V0.658203Z" fill="#333333"/>
</g>
<mask id="mask5_208_43" style="mask-type:luminance" maskUnits="userSpaceOnUse" x="60" y="0" width="9" height="79">
<path d="M60.5571 0.658203H68.8571V79H60.5571V0.658203Z" fill="white"/>
</mask>
<g mask="url(#mask5_208_43)">
<path d="M68.8293 0.658203H60.6135V79H68.8293V0.658203Z" fill="#333333"/>
</g>
<mask id="mask6_208_43" style="mask-type:luminance" maskUnits="userSpaceOnUse" x="31" y="0" width="9" height="79">
<path d="M31.8081 0.658203H39.7096V79H31.8081V0.658203Z" fill="white"/>
</mask>
<g mask="url(#mask6_208_43)">
<path d="M39.6198 0.658203H31.8642V79H39.6198V0.658203Z" fill="#333333"/>
</g>
<mask id="mask7_208_43" style="mask-type:luminance" maskUnits="userSpaceOnUse" x="20" y="0" width="8" height="79">
<path d="M20.8428 0.658203H27.3637V79H20.8428V0.658203Z" fill="white"/>
</mask>
<g mask="url(#mask7_208_43)">
<path d="M20.9097 79H27.3016V0.658203H20.9097V79Z" fill="#333333"/>
</g>
<mask id="mask8_208_43" style="mask-type:luminance" maskUnits="userSpaceOnUse" x="93" y="0" width="7" height="79">
<path d="M93.4536 0.658203H99.8736V79H93.4536V0.658203Z" fill="white"/>
</mask>
<g mask="url(#mask8_208_43)">
<path d="M99.8629 0.658203H93.4766V79H99.8629V0.658203Z" fill="#333333"/>
</g>
<mask id="mask9_208_43" style="mask-type:luminance" maskUnits="userSpaceOnUse" x="78" y="0" width="11" height="79">
<path d="M78.8354 0.658203H88.5159V79H78.8354V0.658203Z" fill="white"/>
</mask>
<g mask="url(#mask9_208_43)">
<path d="M88.4537 0.658203H78.8687V79H88.4537V0.658203Z" fill="#333333"/>
</g>
<mask id="mask10_208_43" style="mask-type:luminance" maskUnits="userSpaceOnUse" x="187" y="0" width="7" height="79">
<path d="M187.009 0.658203H193.036V79H187.009V0.658203Z" fill="white"/>
</mask>
<g mask="url(#mask10_208_43)">
<path d="M192.97 0.658203H187.032V79H192.97V0.658203Z" fill="#333333"/>
</g>
<mask id="mask11_208_43" style="mask-type:luminance" maskUnits="userSpaceOnUse" x="50" y="0" width="6" height="79">
<path d="M50.4785 0.658203H55.2205V79H50.4785V0.658203Z" fill="white"/>
</mask>
<g mask="url(#mask11_208_43)">
<path d="M55.1362 0.658203H50.5738V79H55.1362V0.658203Z" fill="#333333"/>
</g>
<mask id="mask12_208_43" style="mask-type:luminance" maskUnits="userSpaceOnUse" x="198" y="0" width="6" height="79">
<path d="M198.374 0.658203H203.015V79H198.374V0.658203Z" fill="white"/>
</mask>
<g mask="url(#mask12_208_43)">
<path d="M203.009 0.658203H198.441V79H203.009V0.658203Z" fill="#333333"/>
</g>
<mask id="mask13_208_43" style="mask-type:luminance" maskUnits="userSpaceOnUse" x="320" y="0" width="8" height="79">
<path d="M320.678 0.658203H327.165V79H320.678V0.658203Z" fill="white"/>
</mask>
<g mask="url(#mask13_208_43)">
<path d="M327.143 0.658203H320.751V79H327.143V0.658203Z" fill="#333333"/>
</g>
<mask id="mask14_208_43" style="mask-type:luminance" maskUnits="userSpaceOnUse" x="296" y="0" width="7" height="79">
<path d="M296.076 0.658203H302.496V79H296.076V0.658203Z" fill="white"/>
</mask>
<g mask="url(#mask14_208_43)">
<path d="M302.496 0.658203H296.11V79H302.496V0.658203Z" fill="#333333"/>
</g>
<mask id="mask15_208_43" style="mask-type:luminance" maskUnits="userSpaceOnUse" x="279" y="0" width="8" height="79">
<path d="M279.678 0.658203H286.098V79H279.678V0.658203Z" fill="white"/>
</mask>
<g mask="url(#mask15_208_43)">
<path d="M286.07 0.658203H279.678V79H286.07V0.658203Z" fill="#333333"/>
</g>
<mask id="mask16_208_43" style="mask-type:luminance" maskUnits="userSpaceOnUse" x="0" y="0" width="14" height="79">
<path d="M0 0.658203H13.2384V79H0V0.658203Z" fill="white"/>
</mask>
<g mask="url(#mask16_208_43)">
<path d="M13.1542 0.658203H0V79H13.1542V0.658203Z" fill="#333333"/>
</g>
<mask id="mask17_208_43" style="mask-type:luminance" maskUnits="userSpaceOnUse" x="336" y="0" width="9" height="79">
<path d="M336.184 0.658203H345V79H336.184V0.658203Z" fill="white"/>
</mask>
<g mask="url(#mask17_208_43)">
<path d="M336.267 0.658203V79H345.005V0.658203H336.267Z" fill="#333333"/>
</g>
<mask id="mask18_208_43" style="mask-type:luminance" maskUnits="userSpaceOnUse" x="307" y="0" width="10" height="79">
<path d="M307.934 0.658203H316.228V79H307.934V0.658203Z" fill="white"/>
</mask>
<g mask="url(#mask18_208_43)">
<path d="M316.188 0.658203H307.973V79H316.188V0.658203Z" fill="#333333"/>
</g>
<mask id="mask19_208_43" style="mask-type:luminance" maskUnits="userSpaceOnUse" x="270" y="0" width="5" height="79">
<path d="M270.985 0.658203H274.74V79H270.985V0.658203Z" fill="white"/>
</mask>
<g mask="url(#mask19_208_43)">
<path d="M274.661 0.658203H271.008V79H274.661V0.658203Z" fill="#333333"/>
</g>
<mask id="mask20_208_43" style="mask-type:luminance" maskUnits="userSpaceOnUse" x="215" y="0" width="14" height="79">
<path d="M215.265 0.658203H228.105V79H215.265V0.658203Z" fill="white"/>
</mask>
<g mask="url(#mask20_208_43)">
<path d="M228.105 0.658203H215.327V79H228.105V0.658203Z" fill="#333333"/>
</g>
<mask id="mask21_208_43" style="mask-type:luminance" maskUnits="userSpaceOnUse" x="234" y="0" width="3" height="79">
<path d="M234.43 0.658203H236.804V79H234.43V0.658203Z" fill="white"/>
</mask>
<g mask="url(#mask21_208_43)">
<path d="M236.781 0.658203H234.497V79H236.781V0.658203Z" fill="#333333"/>
</g>
<mask id="mask22_208_43" style="mask-type:luminance" maskUnits="userSpaceOnUse" x="244" y="0" width="7" height="79">
<path d="M244.901 0.658203H250.928V79H244.901V0.658203Z" fill="white"/>
</mask>
<g mask="url(#mask22_208_43)">
<path d="M250.928 0.658203H244.996V79H250.928V0.658203Z" fill="#333333"/>
</g>
<mask id="mask23_208_43" style="mask-type:luminance" maskUnits="userSpaceOnUse" x="254" y="0" width="7" height="79">
<path d="M254.98 0.658203H260.514V79H254.98V0.658203Z" fill="white"/>
</mask>
<g mask="url(#mask23_208_43)">
<path d="M260.514 0.658203H255.037V79H260.514V0.658203Z" fill="#333333"/>
</g>
</svg>
