<svg width="1746" height="644" viewBox="0 0 1746 644" fill="none" xmlns="http://www.w3.org/2000/svg">
<mask id="path-1-outside-1_1098_494" maskUnits="userSpaceOnUse" x="47" y="57" width="1678" height="544" fill="black">
<rect fill="white" x="47" y="57" width="1678" height="544"/>
<path d="M156.902 409.2V580H51.9016V69.7H156.902V293.7L356.402 69.7H480.302L276.602 289.5L502.002 580H376.702L209.402 354.6L156.902 409.2ZM655.061 69.7V580H550.061V69.7H655.061ZM861.785 377.7V580H756.785V69.7H1030.49C1073.89 69.7 1106.09 80.9 1129.19 104.7C1153.69 129.9 1167.69 167 1167.69 207.6C1167.69 269.9 1138.99 311.2 1081.59 333.6C1146.69 361.6 1149.49 368.6 1152.29 519.1C1152.29 541.5 1158.59 552 1174.69 561.1V580H1061.99C1049.39 555.5 1046.59 540.8 1046.59 492.5C1046.59 484.8 1046.59 472.2 1047.29 458.9V437.9C1047.29 395.9 1027.69 377.7 982.185 377.7H861.785ZM861.785 290.2H988.485C1018.59 290.2 1031.89 286.7 1043.79 276.9C1056.39 266.4 1062.69 246.8 1062.69 222.3C1062.69 198.5 1056.39 181 1043.79 170.5C1030.49 160 1018.59 157.2 988.485 157.2H861.785V290.2ZM1474.18 61.3C1548.38 61.3 1604.38 83.7 1649.18 132C1694.68 180.3 1720.58 252.4 1720.58 332.2C1720.58 404.3 1693.28 478.5 1649.18 525.4C1605.08 573 1547.68 596.1 1474.88 596.1C1402.08 596.1 1344.68 573 1300.58 525.4C1255.08 477.1 1229.18 405 1229.18 328.7C1229.18 252.4 1255.08 181 1300.58 132C1343.98 85.1 1402.78 61.3 1474.18 61.3ZM1474.88 150.9C1389.48 150.9 1334.18 220.9 1334.18 328.7C1334.18 436.5 1389.48 506.5 1474.88 506.5C1558.88 506.5 1615.58 436.5 1615.58 331.5C1615.58 220.9 1560.98 150.9 1474.88 150.9Z"/>
</mask>
<path d="M156.902 409.2L154.018 406.428L152.902 407.589V409.2H156.902ZM156.902 580V584H160.902V580H156.902ZM51.9016 580H47.9016V584H51.9016V580ZM51.9016 69.7V65.7H47.9016V69.7H51.9016ZM156.902 69.7H160.902V65.7H156.902V69.7ZM156.902 293.7H152.902V304.205L159.889 296.36L156.902 293.7ZM356.402 69.7V65.7H354.608L353.415 67.0396L356.402 69.7ZM480.302 69.7L483.235 72.4189L489.462 65.7H480.302V69.7ZM276.602 289.5L273.668 286.781L271.361 289.27L273.441 291.952L276.602 289.5ZM502.002 580V584H510.168L505.162 577.548L502.002 580ZM376.702 580L373.49 582.384L374.689 584H376.702V580ZM209.402 354.6L212.614 352.216L209.795 348.419L206.518 351.828L209.402 354.6ZM156.902 409.2H152.902V580H156.902H160.902V409.2H156.902ZM156.902 580V576H51.9016V580V584H156.902V580ZM51.9016 580H55.9016V69.7H51.9016H47.9016V580H51.9016ZM51.9016 69.7V73.7H156.902V69.7V65.7H51.9016V69.7ZM156.902 69.7H152.902V293.7H156.902H160.902V69.7H156.902ZM156.902 293.7L159.889 296.36L359.389 72.3603L356.402 69.7L353.415 67.0396L153.915 291.04L156.902 293.7ZM356.402 69.7V73.7H480.302V69.7V65.7H356.402V69.7ZM480.302 69.7L477.368 66.981L273.668 286.781L276.602 289.5L279.535 292.219L483.235 72.4189L480.302 69.7ZM276.602 289.5L273.441 291.952L498.841 582.452L502.002 580L505.162 577.548L279.762 287.048L276.602 289.5ZM502.002 580V576H376.702V580V584H502.002V580ZM376.702 580L379.914 577.616L212.614 352.216L209.402 354.6L206.19 356.984L373.49 582.384L376.702 580ZM209.402 354.6L206.518 351.828L154.018 406.428L156.902 409.2L159.785 411.972L212.285 357.372L209.402 354.6ZM655.061 69.7H659.061V65.7H655.061V69.7ZM655.061 580V584H659.061V580H655.061ZM550.061 580H546.061V584H550.061V580ZM550.061 69.7V65.7H546.061V69.7H550.061ZM655.061 69.7H651.061V580H655.061H659.061V69.7H655.061ZM655.061 580V576H550.061V580V584H655.061V580ZM550.061 580H554.061V69.7H550.061H546.061V580H550.061ZM550.061 69.7V73.7H655.061V69.7V65.7H550.061V69.7ZM861.785 377.7V373.7H857.785V377.7H861.785ZM861.785 580V584H865.785V580H861.785ZM756.785 580H752.785V584H756.785V580ZM756.785 69.7V65.7H752.785V69.7H756.785ZM1129.19 104.7L1126.31 107.486L1126.32 107.488L1129.19 104.7ZM1081.59 333.6L1080.13 329.874L1071.04 333.42L1080 337.275L1081.59 333.6ZM1152.29 519.1H1156.29V519.063L1156.28 519.026L1152.29 519.1ZM1174.69 561.1H1178.69V558.766L1176.65 557.618L1174.69 561.1ZM1174.69 580V584H1178.69V580H1174.69ZM1061.99 580L1058.43 581.829L1059.54 584H1061.99V580ZM1047.29 458.9L1051.28 459.11L1051.29 459.005V458.9H1047.29ZM861.785 290.2H857.785V294.2H861.785V290.2ZM1043.79 276.9L1046.33 279.988L1046.34 279.98L1046.35 279.973L1043.79 276.9ZM1043.79 170.5L1046.35 167.427L1046.31 167.393L1046.26 167.36L1043.79 170.5ZM861.785 157.2V153.2H857.785V157.2H861.785ZM861.785 377.7H857.785V580H861.785H865.785V377.7H861.785ZM861.785 580V576H756.785V580V584H861.785V580ZM756.785 580H760.785V69.7H756.785H752.785V580H756.785ZM756.785 69.7V73.7H1030.49V69.7V65.7H756.785V69.7ZM1030.49 69.7V73.7C1073.18 73.7 1104.2 84.6966 1126.31 107.486L1129.19 104.7L1132.06 101.914C1107.97 77.1034 1074.59 65.7 1030.49 65.7V69.7ZM1129.19 104.7L1126.32 107.488C1149.99 131.834 1163.69 167.881 1163.69 207.6H1167.69H1171.69C1171.69 166.118 1157.38 127.966 1132.05 101.912L1129.19 104.7ZM1167.69 207.6H1163.69C1163.69 238.124 1156.66 263.189 1142.86 283.299C1129.06 303.411 1108.26 318.898 1080.13 329.874L1081.59 333.6L1083.04 337.326C1112.31 325.902 1134.56 309.539 1149.46 287.826C1164.36 266.111 1171.69 239.376 1171.69 207.6H1167.69ZM1081.59 333.6L1080 337.275C1112.66 351.322 1128.04 359.526 1136.56 381.839C1140.94 393.312 1143.56 408.699 1145.22 430.861C1146.89 452.986 1147.59 481.526 1148.29 519.174L1152.29 519.1L1156.28 519.026C1155.58 481.424 1154.88 452.652 1153.2 430.261C1151.52 407.907 1148.84 391.575 1144.03 378.986C1134.18 353.174 1115.61 343.878 1083.17 329.925L1081.59 333.6ZM1152.29 519.1H1148.29C1148.29 530.631 1149.9 539.616 1153.94 547.006C1158.01 554.45 1164.29 559.817 1172.72 564.582L1174.69 561.1L1176.65 557.618C1168.98 553.283 1164.06 548.85 1160.96 543.169C1157.82 537.434 1156.29 529.969 1156.29 519.1H1152.29ZM1174.69 561.1H1170.69V580H1174.69H1178.69V561.1H1174.69ZM1174.69 580V576H1061.99V580V584H1174.69V580ZM1061.99 580L1065.54 578.171C1059.36 566.151 1055.68 556.738 1053.5 544.474C1051.29 532.076 1050.59 516.635 1050.59 492.5H1046.59H1042.59C1042.59 516.665 1043.28 532.724 1045.62 545.876C1047.99 559.162 1052.01 569.349 1058.43 581.829L1061.99 580ZM1046.59 492.5H1050.59C1050.59 484.798 1050.59 472.293 1051.28 459.11L1047.29 458.9L1043.29 458.69C1042.58 472.107 1042.59 484.802 1042.59 492.5H1046.59ZM1047.29 458.9H1051.29V437.9H1047.29H1043.29V458.9H1047.29ZM1047.29 437.9H1051.29C1051.29 416.355 1046.26 399.987 1034.51 389.115C1022.84 378.309 1005.34 373.7 982.185 373.7V377.7V381.7C1004.53 381.7 1019.58 386.191 1029.08 394.985C1038.51 403.713 1043.29 417.445 1043.29 437.9H1047.29ZM982.185 377.7V373.7H861.785V377.7V381.7H982.185V377.7ZM861.785 290.2V294.2H988.485V290.2V286.2H861.785V290.2ZM988.485 290.2V294.2C1018.84 294.2 1033.32 290.698 1046.33 279.988L1043.79 276.9L1041.24 273.812C1030.45 282.702 1018.33 286.2 988.485 286.2V290.2ZM1043.79 276.9L1046.35 279.973C1060.3 268.346 1066.69 247.26 1066.69 222.3H1062.69H1058.69C1058.69 246.34 1052.47 264.454 1041.22 273.827L1043.79 276.9ZM1062.69 222.3H1066.69C1066.69 197.888 1060.22 178.991 1046.35 167.427L1043.79 170.5L1041.22 173.573C1052.55 183.009 1058.69 199.112 1058.69 222.3H1062.69ZM1043.79 170.5L1046.26 167.36C1039.22 161.802 1032.41 158.188 1023.37 156.023C1014.49 153.895 1003.59 153.2 988.485 153.2V157.2V161.2C1003.48 161.2 1013.59 161.905 1021.5 163.802C1029.27 165.662 1035.05 168.698 1041.31 173.64L1043.79 170.5ZM988.485 157.2V153.2H861.785V157.2V161.2H988.485V157.2ZM861.785 157.2H857.785V290.2H861.785H865.785V157.2H861.785ZM1649.18 132L1646.24 134.72L1646.25 134.731L1646.26 134.743L1649.18 132ZM1649.18 525.4L1646.26 522.66L1646.25 522.671L1646.24 522.682L1649.18 525.4ZM1300.58 525.4L1303.51 522.682L1303.5 522.669L1303.49 522.657L1300.58 525.4ZM1300.58 132L1303.51 134.722L1303.51 134.717L1300.58 132ZM1474.18 61.3V65.3C1547.43 65.3 1602.31 87.3533 1646.24 134.72L1649.18 132L1652.11 129.28C1606.44 80.0466 1549.32 57.3 1474.18 57.3V61.3ZM1649.18 132L1646.26 134.743C1690.94 182.162 1716.58 253.212 1716.58 332.2H1720.58H1724.58C1724.58 251.588 1698.42 178.437 1652.09 129.257L1649.18 132ZM1720.58 332.2H1716.58C1716.58 403.422 1689.57 476.598 1646.26 522.66L1649.18 525.4L1652.09 528.14C1696.98 480.402 1724.58 405.178 1724.58 332.2H1720.58ZM1649.18 525.4L1646.24 522.682C1603 569.352 1546.72 592.1 1474.88 592.1V596.1V600.1C1548.63 600.1 1607.15 576.648 1652.11 528.118L1649.18 525.4ZM1474.88 596.1V592.1C1403.03 592.1 1346.75 569.352 1303.51 522.682L1300.58 525.4L1297.64 528.118C1342.6 576.648 1401.12 600.1 1474.88 600.1V596.1ZM1300.58 525.4L1303.49 522.657C1258.8 475.222 1233.18 404.162 1233.18 328.7H1229.18H1225.18C1225.18 405.838 1251.35 478.978 1297.66 528.143L1300.58 525.4ZM1229.18 328.7H1233.18C1233.18 253.255 1258.79 182.876 1303.51 134.722L1300.58 132L1297.64 129.278C1251.36 179.124 1225.18 251.545 1225.18 328.7H1229.18ZM1300.58 132L1303.51 134.717C1346.06 88.7421 1403.74 65.3 1474.18 65.3V61.3V57.3C1401.82 57.3 1341.9 81.4579 1297.64 129.283L1300.58 132ZM1474.88 150.9V146.9C1430.97 146.9 1394.64 164.943 1369.36 196.894C1344.16 228.754 1330.18 274.157 1330.18 328.7H1334.18H1338.18C1338.18 275.443 1351.84 231.946 1375.64 201.856C1399.37 171.857 1433.38 154.9 1474.88 154.9V150.9ZM1334.18 328.7H1330.18C1330.18 383.243 1344.16 428.646 1369.36 460.506C1394.64 492.457 1430.97 510.5 1474.88 510.5V506.5V502.5C1433.38 502.5 1399.37 485.543 1375.64 455.544C1351.84 425.454 1338.18 381.957 1338.18 328.7H1334.18ZM1474.88 506.5V510.5C1518.09 510.5 1554.41 492.45 1579.84 460.885C1605.22 429.391 1619.58 384.688 1619.58 331.5H1615.58H1611.58C1611.58 383.312 1597.59 426.109 1573.61 455.865C1549.69 485.55 1515.66 502.5 1474.88 502.5V506.5ZM1615.58 331.5H1619.58C1619.58 275.59 1605.78 229.487 1580.67 197.266C1555.48 164.941 1519.12 146.9 1474.88 146.9V150.9V154.9C1516.73 154.9 1550.72 171.859 1574.36 202.184C1598.07 232.613 1611.58 276.81 1611.58 331.5H1615.58Z" fill="#FA4C03" mask="url(#path-1-outside-1_1098_494)"/>
<mask id="path-3-outside-2_1098_494" maskUnits="userSpaceOnUse" x="47" y="84.6484" width="1678" height="544" fill="black">
<rect fill="white" x="47" y="84.6484" width="1678" height="544"/>
<path d="M156.902 436.848V607.648H51.9016V97.3484H156.902V321.348L356.402 97.3484H480.302L276.602 317.148L502.002 607.648H376.702L209.402 382.248L156.902 436.848ZM655.061 97.3484V607.648H550.061V97.3484H655.061ZM861.785 405.348V607.648H756.785V97.3484H1030.49C1073.89 97.3484 1106.09 108.548 1129.19 132.348C1153.69 157.548 1167.69 194.648 1167.69 235.248C1167.69 297.548 1138.99 338.848 1081.59 361.248C1146.69 389.248 1149.49 396.248 1152.29 546.748C1152.29 569.148 1158.59 579.648 1174.69 588.748V607.648H1061.99C1049.39 583.148 1046.59 568.448 1046.59 520.148C1046.59 512.448 1046.59 499.848 1047.29 486.548V465.548C1047.29 423.548 1027.69 405.348 982.185 405.348H861.785ZM861.785 317.848H988.485C1018.59 317.848 1031.89 314.348 1043.79 304.548C1056.39 294.048 1062.69 274.448 1062.69 249.948C1062.69 226.148 1056.39 208.648 1043.79 198.148C1030.49 187.648 1018.59 184.848 988.485 184.848H861.785V317.848ZM1474.18 88.9484C1548.38 88.9484 1604.38 111.348 1649.18 159.648C1694.68 207.948 1720.58 280.048 1720.58 359.848C1720.58 431.948 1693.28 506.148 1649.18 553.048C1605.08 600.648 1547.68 623.748 1474.88 623.748C1402.08 623.748 1344.68 600.648 1300.58 553.048C1255.08 504.748 1229.18 432.648 1229.18 356.348C1229.18 280.048 1255.08 208.648 1300.58 159.648C1343.98 112.748 1402.78 88.9484 1474.18 88.9484ZM1474.88 178.548C1389.48 178.548 1334.18 248.548 1334.18 356.348C1334.18 464.148 1389.48 534.148 1474.88 534.148C1558.88 534.148 1615.58 464.148 1615.58 359.148C1615.58 248.548 1560.98 178.548 1474.88 178.548Z"/>
</mask>
<path d="M156.902 436.848L154.018 434.076L152.902 435.237V436.848H156.902ZM156.902 607.648V611.648H160.902V607.648H156.902ZM51.9016 607.648H47.9016V611.648H51.9016V607.648ZM51.9016 97.3484V93.3484H47.9016V97.3484H51.9016ZM156.902 97.3484H160.902V93.3484H156.902V97.3484ZM156.902 321.348H152.902V331.854L159.889 324.009L156.902 321.348ZM356.402 97.3484V93.3484H354.608L353.415 94.6881L356.402 97.3484ZM480.302 97.3484L483.235 100.067L489.462 93.3484H480.302V97.3484ZM276.602 317.148L273.668 314.429L271.361 316.919L273.441 319.6L276.602 317.148ZM502.002 607.648V611.648H510.168L505.162 605.196L502.002 607.648ZM376.702 607.648L373.49 610.032L374.689 611.648H376.702V607.648ZM209.402 382.248L212.614 379.864L209.795 376.068L206.518 379.476L209.402 382.248ZM156.902 436.848H152.902V607.648H156.902H160.902V436.848H156.902ZM156.902 607.648V603.648H51.9016V607.648V611.648H156.902V607.648ZM51.9016 607.648H55.9016V97.3484H51.9016H47.9016V607.648H51.9016ZM51.9016 97.3484V101.348H156.902V97.3484V93.3484H51.9016V97.3484ZM156.902 97.3484H152.902V321.348H156.902H160.902V97.3484H156.902ZM156.902 321.348L159.889 324.009L359.389 100.009L356.402 97.3484L353.415 94.6881L153.915 318.688L156.902 321.348ZM356.402 97.3484V101.348H480.302V97.3484V93.3484H356.402V97.3484ZM480.302 97.3484L477.368 94.6295L273.668 314.429L276.602 317.148L279.535 319.867L483.235 100.067L480.302 97.3484ZM276.602 317.148L273.441 319.6L498.841 610.101L502.002 607.648L505.162 605.196L279.762 314.696L276.602 317.148ZM502.002 607.648V603.648H376.702V607.648V611.648H502.002V607.648ZM376.702 607.648L379.914 605.264L212.614 379.864L209.402 382.248L206.19 384.632L373.49 610.032L376.702 607.648ZM209.402 382.248L206.518 379.476L154.018 434.076L156.902 436.848L159.785 439.621L212.285 385.021L209.402 382.248ZM655.061 97.3484H659.061V93.3484H655.061V97.3484ZM655.061 607.648V611.648H659.061V607.648H655.061ZM550.061 607.648H546.061V611.648H550.061V607.648ZM550.061 97.3484V93.3484H546.061V97.3484H550.061ZM655.061 97.3484H651.061V607.648H655.061H659.061V97.3484H655.061ZM655.061 607.648V603.648H550.061V607.648V611.648H655.061V607.648ZM550.061 607.648H554.061V97.3484H550.061H546.061V607.648H550.061ZM550.061 97.3484V101.348H655.061V97.3484V93.3484H550.061V97.3484ZM861.785 405.348V401.348H857.785V405.348H861.785ZM861.785 607.648V611.648H865.785V607.648H861.785ZM756.785 607.648H752.785V611.648H756.785V607.648ZM756.785 97.3484V93.3484H752.785V97.3484H756.785ZM1129.19 132.348L1126.31 135.134L1126.32 135.137L1129.19 132.348ZM1081.59 361.248L1080.13 357.522L1071.04 361.069L1080 364.923L1081.59 361.248ZM1152.29 546.748H1156.29V546.711L1156.28 546.674L1152.29 546.748ZM1174.69 588.748H1178.69V586.415L1176.65 585.266L1174.69 588.748ZM1174.69 607.648V611.648H1178.69V607.648H1174.69ZM1061.99 607.648L1058.43 609.478L1059.54 611.648H1061.99V607.648ZM1047.29 486.548L1051.28 486.759L1051.29 486.654V486.548H1047.29ZM861.785 317.848H857.785V321.848H861.785V317.848ZM1043.79 304.548L1046.33 307.636L1046.34 307.629L1046.35 307.621L1043.79 304.548ZM1043.79 198.148L1046.35 195.076L1046.31 195.042L1046.26 195.009L1043.79 198.148ZM861.785 184.848V180.848H857.785V184.848H861.785ZM861.785 405.348H857.785V607.648H861.785H865.785V405.348H861.785ZM861.785 607.648V603.648H756.785V607.648V611.648H861.785V607.648ZM756.785 607.648H760.785V97.3484H756.785H752.785V607.648H756.785ZM756.785 97.3484V101.348H1030.49V97.3484V93.3484H756.785V97.3484ZM1030.49 97.3484V101.348C1073.18 101.348 1104.2 112.345 1126.31 135.134L1129.19 132.348L1132.06 129.563C1107.97 104.752 1074.59 93.3484 1030.49 93.3484V97.3484ZM1129.19 132.348L1126.32 135.137C1149.99 159.483 1163.69 195.53 1163.69 235.248H1167.69H1171.69C1171.69 193.767 1157.38 155.614 1132.05 129.56L1129.19 132.348ZM1167.69 235.248H1163.69C1163.69 265.773 1156.66 290.837 1142.86 310.948C1129.06 331.06 1108.26 346.546 1080.13 357.522L1081.59 361.248L1083.04 364.975C1112.31 353.551 1134.56 337.187 1149.46 315.474C1164.36 293.759 1171.69 267.024 1171.69 235.248H1167.69ZM1081.59 361.248L1080 364.923C1112.66 378.97 1128.04 387.175 1136.56 409.488C1140.94 420.961 1143.56 436.348 1145.22 458.509C1146.89 480.634 1147.59 509.175 1148.29 546.823L1152.29 546.748L1156.28 546.674C1155.58 509.072 1154.88 480.3 1153.2 457.909C1151.52 435.555 1148.84 419.224 1144.03 406.634C1134.18 380.822 1115.61 371.527 1083.17 357.574L1081.59 361.248ZM1152.29 546.748H1148.29C1148.29 558.279 1149.9 567.264 1153.94 574.655C1158.01 582.098 1164.29 587.465 1172.72 592.231L1174.69 588.748L1176.65 585.266C1168.98 580.932 1164.06 576.499 1160.96 570.817C1157.82 565.083 1156.29 557.618 1156.29 546.748H1152.29ZM1174.69 588.748H1170.69V607.648H1174.69H1178.69V588.748H1174.69ZM1174.69 607.648V603.648H1061.99V607.648V611.648H1174.69V607.648ZM1061.99 607.648L1065.54 605.819C1059.36 593.799 1055.68 584.387 1053.5 572.122C1051.29 559.725 1050.59 544.284 1050.59 520.148H1046.59H1042.59C1042.59 544.313 1043.28 560.372 1045.62 573.525C1047.99 586.81 1052.01 596.998 1058.43 609.478L1061.99 607.648ZM1046.59 520.148H1050.59C1050.59 512.447 1050.59 499.942 1051.28 486.759L1047.29 486.548L1043.29 486.338C1042.58 499.755 1042.59 512.45 1042.59 520.148H1046.59ZM1047.29 486.548H1051.29V465.548H1047.29H1043.29V486.548H1047.29ZM1047.29 465.548H1051.29C1051.29 444.004 1046.26 427.635 1034.51 416.763C1022.84 405.957 1005.34 401.348 982.185 401.348V405.348V409.348C1004.53 409.348 1019.58 413.84 1029.08 422.634C1038.51 431.361 1043.29 445.093 1043.29 465.548H1047.29ZM982.185 405.348V401.348H861.785V405.348V409.348H982.185V405.348ZM861.785 317.848V321.848H988.485V317.848V313.848H861.785V317.848ZM988.485 317.848V321.848C1018.84 321.848 1033.32 318.346 1046.33 307.636L1043.79 304.548L1041.24 301.461C1030.45 310.35 1018.33 313.848 988.485 313.848V317.848ZM1043.79 304.548L1046.35 307.621C1060.3 295.994 1066.69 274.908 1066.69 249.948H1062.69H1058.69C1058.69 273.988 1052.47 292.103 1041.22 301.476L1043.79 304.548ZM1062.69 249.948H1066.69C1066.69 225.536 1060.22 206.64 1046.35 195.076L1043.79 198.148L1041.22 201.221C1052.55 210.657 1058.69 226.761 1058.69 249.948H1062.69ZM1043.79 198.148L1046.26 195.009C1039.22 189.45 1032.41 185.836 1023.37 183.671C1014.49 181.543 1003.59 180.848 988.485 180.848V184.848V188.848C1003.48 188.848 1013.59 189.554 1021.5 191.451C1029.27 193.31 1035.05 196.347 1041.31 201.288L1043.79 198.148ZM988.485 184.848V180.848H861.785V184.848V188.848H988.485V184.848ZM861.785 184.848H857.785V317.848H861.785H865.785V184.848H861.785ZM1649.18 159.648L1646.24 162.369L1646.25 162.38L1646.26 162.391L1649.18 159.648ZM1649.18 553.048L1646.26 550.308L1646.25 550.319L1646.24 550.33L1649.18 553.048ZM1300.58 553.048L1303.51 550.33L1303.5 550.318L1303.49 550.306L1300.58 553.048ZM1300.58 159.648L1303.51 162.37L1303.51 162.365L1300.58 159.648ZM1474.18 88.9484V92.9484C1547.43 92.9484 1602.31 115.002 1646.24 162.369L1649.18 159.648L1652.11 156.928C1606.44 107.695 1549.32 84.9484 1474.18 84.9484V88.9484ZM1649.18 159.648L1646.26 162.391C1690.94 209.811 1716.58 280.861 1716.58 359.848H1720.58H1724.58C1724.58 279.236 1698.42 206.086 1652.09 156.906L1649.18 159.648ZM1720.58 359.848H1716.58C1716.58 431.07 1689.57 504.246 1646.26 550.308L1649.18 553.048L1652.09 555.789C1696.98 508.051 1724.58 432.827 1724.58 359.848H1720.58ZM1649.18 553.048L1646.24 550.33C1603 597.001 1546.72 619.748 1474.88 619.748V623.748V627.748C1548.63 627.748 1607.15 604.296 1652.11 555.767L1649.18 553.048ZM1474.88 623.748V619.748C1403.03 619.748 1346.75 597.001 1303.51 550.33L1300.58 553.048L1297.64 555.767C1342.6 604.296 1401.12 627.748 1474.88 627.748V623.748ZM1300.58 553.048L1303.49 550.306C1258.8 502.87 1233.18 431.81 1233.18 356.348H1229.18H1225.18C1225.18 433.486 1251.35 506.627 1297.66 555.791L1300.58 553.048ZM1229.18 356.348H1233.18C1233.18 280.904 1258.79 210.525 1303.51 162.37L1300.58 159.648L1297.64 156.927C1251.36 206.772 1225.18 279.193 1225.18 356.348H1229.18ZM1300.58 159.648L1303.51 162.365C1346.06 116.391 1403.74 92.9484 1474.18 92.9484V88.9484V84.9484C1401.82 84.9484 1341.9 109.106 1297.64 156.932L1300.58 159.648ZM1474.88 178.548V174.548C1430.97 174.548 1394.64 192.591 1369.36 224.542C1344.16 256.402 1330.18 301.806 1330.18 356.348H1334.18H1338.18C1338.18 303.091 1351.84 259.595 1375.64 229.505C1399.37 199.506 1433.38 182.548 1474.88 182.548V178.548ZM1334.18 356.348H1330.18C1330.18 410.891 1344.16 456.295 1369.36 488.155C1394.64 520.106 1430.97 538.148 1474.88 538.148V534.148V530.148C1433.38 530.148 1399.37 513.191 1375.64 483.192C1351.84 453.102 1338.18 409.606 1338.18 356.348H1334.18ZM1474.88 534.148V538.148C1518.09 538.148 1554.41 520.099 1579.84 488.533C1605.22 457.04 1619.58 412.336 1619.58 359.148H1615.58H1611.58C1611.58 410.961 1597.59 453.757 1573.61 483.514C1549.69 513.198 1515.66 530.148 1474.88 530.148V534.148ZM1615.58 359.148H1619.58C1619.58 303.238 1605.78 257.136 1580.67 224.915C1555.48 192.59 1519.12 174.548 1474.88 174.548V178.548V182.548C1516.73 182.548 1550.72 199.507 1574.36 229.832C1598.07 260.261 1611.58 304.458 1611.58 359.148H1615.58Z" fill="#FA4C03" mask="url(#path-3-outside-2_1098_494)"/>
<path d="M156.902 456.699V627.499H51.9016V117.199H156.902V341.199L356.402 117.199H480.302L276.602 336.999L502.002 627.499H376.702L209.402 402.099L156.902 456.699ZM655.061 117.199V627.499H550.061V117.199H655.061ZM861.785 425.199V627.499H756.785V117.199H1030.49C1073.89 117.199 1106.09 128.398 1129.19 152.199C1153.69 177.399 1167.69 214.499 1167.69 255.099C1167.69 317.399 1138.99 358.699 1081.59 381.099C1146.69 409.099 1149.49 416.099 1152.29 566.599C1152.29 588.999 1158.59 599.499 1174.69 608.599V627.499H1061.99C1049.39 602.999 1046.59 588.299 1046.59 539.999C1046.59 532.299 1046.59 519.699 1047.29 506.399V485.399C1047.29 443.399 1027.69 425.199 982.185 425.199H861.785ZM861.785 337.699H988.485C1018.59 337.699 1031.89 334.199 1043.79 324.399C1056.39 313.899 1062.69 294.299 1062.69 269.799C1062.69 245.999 1056.39 228.498 1043.79 217.999C1030.49 207.499 1018.59 204.699 988.485 204.699H861.785V337.699ZM1474.18 108.798C1548.38 108.798 1604.38 131.198 1649.18 179.499C1694.68 227.799 1720.58 299.899 1720.58 379.699C1720.58 451.799 1693.28 525.999 1649.18 572.899C1605.08 620.499 1547.68 643.599 1474.88 643.599C1402.08 643.599 1344.68 620.499 1300.58 572.899C1255.08 524.599 1229.18 452.499 1229.18 376.199C1229.18 299.899 1255.08 228.498 1300.58 179.499C1343.98 132.599 1402.78 108.798 1474.18 108.798ZM1474.88 198.399C1389.48 198.399 1334.18 268.399 1334.18 376.199C1334.18 483.999 1389.48 553.999 1474.88 553.999C1558.88 553.999 1615.58 483.999 1615.58 378.999C1615.58 268.399 1560.98 198.399 1474.88 198.399Z" fill="#050505"/>
</svg>
